#!OML:ASF E:/inclinewalkrobotboard/Project1/Captureday1/Session1/subject1.ASF
:FULLY-SPECIFIED
:DEGREES
13
root 0 0 0 -1.6566679308611256 0.559749762055517 -0.41949930296687077
lowerback 10.564302252007518 -1.7007035941475483 -2.263623379452328
upperback 0.41306783711590755 -2.359091521354708 2.39536342191995
thorax -5.3161369788928825 -1.0928040034920283 4.113922639279848
lowerneck -17.65770225988551 -2.233959452829651 -1.695022573764648
upperneck 18.973207480545575 -2.500598874301989 -0.6226487196201116
head 8.949006895027937 -1.3381049927470743 -0.25103886810166026
rclavicle 2.182455696520469E-15 -2.537479087703937E-15
rhumerus -33.02299990985267 -25.58798506244309 -75.5074546243071
rradius 23.885158246456456
rwrist 4.621462683662242
rhand -18.625099484678852 22.309131079274078
rfingers 7.125020000000016
rthumb 7.67005270984709 -7.617882239015977
lclavicle 7.471176397581752E-16 -1.7714739181578126E-15
lhumerus -26.14675746676417 -3.4732176114145683 81.4934767686175
lradius 30.618242517484255
lwrist 6.962350094301616
lhand -27.83795621159407 25.891424838720987
lfingers 7.125020000000011
lthumb -1.222213868372175 55.871870596179306
rfemur -22.46763550863876 5.129342020501376 22.00353010303777
rtibia 29.487564007036294
rfoot -6.554349858595567 -6.883901033122249
rtoes 4.556249787099708
lfemur 16.68732321962619 -3.884696576402381 -25.588925428450274
ltibia 33.33941780900958
lfoot 0.2300668577942524 -12.303134806449268
ltoes -11.912091969309667
14
root 0 0 0 -2.2098909047742987 0.46993576499464673 -2.590071131214235
lowerback 10.514318826577115 -1.7419081275492188 -0.45759226895145577
upperback 0.6723555167123867 -2.1633693218503076 3.0124827614789877
thorax -5.048362273249639 -1.0296904448298632 3.7272581191456045
lowerneck -17.164867042625136 -2.229372088960657 -1.6122638417392037
upperneck 20.21390727591657 -2.5097565569749394 -0.6671303650642082
head 9.24601646854001 -1.3389784354690684 -0.2910369862153202
rclavicle 2.416779581371625E-15 -3.7251536059559696E-15
rhumerus -32.938486968752684 -25.591450661848533 -75.51228863259294
rradius 23.71438153772435
rwrist 4.833584516331457
rhand -18.53948936572863 22.354767900490693
rfingers 7.125020000000017
rthumb 7.753057856439397 -7.563183858691424
lclavicle 7.132011787886123E-16 -3.225011357302638E-15
lhumerus -29.057281775107853 -2.4200019372931774 82.37060941780338
lradius 29.816118418860086
lwrist 6.803584755142582
lhand -27.557840291665563 25.097734319718413
lfingers 7.125020000000019
lthumb -0.9538806865102503 55.07007580018113
rfemur -20.05804767208127 5.278301996293028 24.03234515366008
rtibia 31.688824687274735
rfoot -7.648123416057148 -5.5863386183601005
rtoes 8.67258102412946
lfemur 5.7467497349965155 -2.38763444544271 -18.762160860474054
ltibia 53.34321630804622
lfoot 16.896398271942317 -20.07984070531546
ltoes -7.998450592059747
15
root 0 0 0 -3.228851279348036 -0.08005434138768841 -3.4438829000759514
lowerback 11.212566087522056 -1.4073042950810932 0.4426183094975003
upperback 1.0346415819115298 -1.596329992015978 3.104792459807709
thorax -5.1468235983662805 -0.7637022299368623 3.2482460786306073
lowerneck -16.49546705098276 -2.426876160466587 -1.596180762472705
upperneck 21.751328381913822 -2.8249753474632664 -0.5049410718027734
head 9.676061685932668 -1.471596800566635 -0.28366661673265153
rclavicle 3.321392241762421E-15 -5.297340649939718E-15
rhumerus -32.82112578836161 -25.26306456850224 -75.9391084935864
rradius 23.35058801356761
rwrist 5.1424040216013
rhand -18.35754882047066 22.434750259470437
rfingers 7.125020000000017
rthumb 7.9305798964195 -7.457081594956261
lclavicle 1.0926687234828587E-15 -5.243030650240396E-15
lhumerus -31.510737274581942 -1.8061908510753206 83.35850663526912
lradius 29.166147621839336
lwrist 6.6042947621894506
lhand -27.350078589742026 24.40731290365362
lfingers 7.125020000000025
lthumb -0.7531543064524131 54.378579163424746
rfemur -18.343163169702326 6.183080417631693 26.010848412034655
rtibia 30.002923490336357
rfoot -9.376562831143607 -6.019939464042851
rtoes 10.908817665063092
lfemur -2.0850831587601135 -0.2586932812215288 -16.572047209549506
ltibia 61.4615391436689
lfoot 18.6478659011156 -21.142386991675068
ltoes -4.615324674580318
16
root 0 0 0 -3.9527716675521907 -0.8666510335204434 -3.896461571337383
lowerback 12.360766687424599 -1.0175594285175578 1.1818791413806764
upperback 1.0691199340853053 -0.9898260610402712 2.9719074696749797
thorax -5.826218552096279 -0.47810242825411065 2.6099313389173338
lowerneck -16.413799212670366 -2.6442405147078523 -1.5961501141463268
upperneck 21.252775877914353 -3.143259689000186 -0.3556599855257765
head 9.545582265400071 -1.6238203624236018 -0.2629687373274228
rclavicle 3.2910816373691133E-15 -6.592812499325232E-15
rhumerus -32.60010033584905 -24.554589870158658 -76.36216224725146
rradius 23.29239028581958
rwrist 5.241437821549359
rhand -18.233703555543332 22.619991256775602
rfingers 7.125020000000017
rthumb 8.050557279985734 -7.259209131275139
lclavicle 2.0659542307898434E-16 -6.631181391293408E-15
lhumerus -32.881651387677294 -1.481714412031423 83.9121412644562
lradius 28.763680524197664
lwrist 6.47776390770138
lhand -27.334841558678637 23.976659101851308
lfingers 7.125020000000028
lthumb -0.7341465658591435 53.957287387539424
rfemur -17.292325475497336 6.326664815361354 26.55872599807376
rtibia 30.261050849697916
rfoot -10.122595409759587 -6.114085868893377
rtoes 11.50832304313198
lfemur -9.65790562108444 2.4487982810761464 -15.218866643593413
ltibia 70.00151048176627
lfoot 13.73128005788734 -18.51536696539383
ltoes -3.6538877319712775
